const unsigned char _embedded_song[]={
// $ hd -v -e '16/1 "0x%02x," "\n"' src/data/eternal_torment.mid
0x4d,0x54,0x68,0x64,0x00,0x00,0x00,0x06,0x00,0x01,0x00,0x01,0x01,0xd5,0x4d,0x54,
0x72,0x6b,0x00,0x00,0x08,0x14,0x00,0xff,0x77,0x81,0x72,0x01,0x68,0x93,0x02,0x00,
0x22,0x0e,0x13,0x00,0x18,0x5d,0x0a,0x00,0x0d,0xff,0xff,0x00,0x10,0x1a,0x55,0x00,
0x16,0x49,0x6c,0x00,0x75,0x00,0x00,0x01,0xa3,0x00,0x00,0x00,0xc8,0x01,0x0b,0x22,
0x00,0x01,0x00,0x00,0x08,0x04,0x06,0x04,0x00,0x80,0x0a,0x00,0x80,0x02,0x2a,0x67,
0x02,0x00,0x21,0x0e,0x13,0x00,0x1f,0x5e,0x97,0x00,0x19,0xff,0xff,0x00,0x17,0x4a,
0x0b,0x00,0x17,0xaa,0x93,0x00,0x92,0x00,0x00,0x01,0x31,0x00,0x00,0x00,0xc8,0x02,
0x30,0x00,0x01,0x00,0x00,0x00,0x03,0x39,0x92,0x02,0x00,0x18,0x00,0x00,0xc8,0x00,
0x01,0x0b,0x23,0x00,0x08,0xf0,0x00,0x00,0x01,0x00,0x00,0x00,0x00,0x00,0x00,0xff,
0x00,0x04,0x00,0x80,0x00,0x00,0x04,0x32,0x64,0x02,0x00,0x33,0x0e,0x13,0x00,0x35,
0x44,0x36,0x00,0x24,0xff,0xff,0x00,0x0c,0x3e,0xb8,0x00,0x14,0xe8,0x2b,0x01,0x15,
0x00,0x00,0x02,0x28,0x00,0x00,0x00,0xc8,0x03,0x20,0x00,0x03,0x60,0x00,0x09,0x80,
0x35,0xf0,0x00,0x00,0x01,0x00,0x00,0x00,0x00,0x00,0x00,0xff,0x00,0x08,0x00,0x00,
0x08,0x04,0x06,0x02,0x00,0x80,0x0a,0x00,0x20,0x05,0x54,0x98,0x02,0x00,0x23,0x0e,
0x13,0x00,0x19,0x56,0x5a,0x00,0x10,0xff,0xff,0x00,0x12,0x17,0xcd,0x00,0x18,0x43,
0x04,0x01,0x79,0x00,0x00,0x02,0x45,0x00,0x00,0x00,0xc8,0x00,0x00,0x00,0x03,0x78,
0x01,0x90,0x00,0x09,0x02,0x07,0x01,0x00,0xb4,0x64,0x80,0xa0,0x50,0x00,0xff,0x78,
0x49,0x01,0x00,0x0a,0x46,0x75,0x6c,0x6c,0x20,0x50,0x69,0x61,0x6e,0x6f,0x02,0x00,
0x0f,0x45,0x78,0x74,0x72,0x61,0x20,0x4c,0x65,0x66,0x74,0x20,0x48,0x61,0x6e,0x64,
0x03,0x00,0x10,0x45,0x78,0x74,0x72,0x61,0x20,0x52,0x69,0x67,0x68,0x74,0x20,0x48,
0x61,0x6e,0x64,0x04,0x00,0x08,0x4c,0x6f,0x6e,0x67,0x20,0x50,0x61,0x64,0x05,0x00,
0x09,0x41,0x72,0x70,0x65,0x67,0x67,0x69,0x6f,0x73,0x00,0xff,0x51,0x03,0x07,0x28,
0x08,0x00,0x91,0x26,0x24,0x00,0x91,0x3d,0x3f,0x00,0x92,0x26,0x3f,0x00,0x93,0x3d,
0x3f,0x00,0x94,0x39,0x36,0x00,0x95,0x3e,0x36,0x40,0x85,0x3e,0x40,0x81,0x2a,0x91,
0x2d,0x1b,0x00,0x92,0x2d,0x3f,0x00,0x95,0x42,0x36,0x16,0x82,0x26,0x40,0x1a,0x85,
0x42,0x40,0x81,0x16,0x81,0x26,0x40,0x1a,0x82,0x2d,0x40,0x0a,0x91,0x32,0x24,0x00,
0x92,0x32,0x36,0x00,0x95,0x45,0x2d,0x26,0x81,0x2d,0x40,0x0a,0x85,0x45,0x40,0x81,
0x30,0x82,0x32,0x40,0x0b,0x91,0x34,0x24,0x00,0x92,0x34,0x3f,0x00,0x95,0x4a,0x36,
0x25,0x81,0x32,0x40,0x0b,0x85,0x4a,0x40,0x81,0x3a,0x91,0x36,0x1b,0x00,0x92,0x36,
0x36,0x00,0x95,0x45,0x36,0x30,0x85,0x45,0x40,0x06,0x82,0x34,0x40,0x10,0x81,0x34,
0x40,0x81,0x25,0x91,0x39,0x24,0x00,0x92,0x39,0x2d,0x00,0x95,0x42,0x36,0x05,0x82,
0x36,0x40,0x00,0x81,0x36,0x40,0x0b,0x85,0x42,0x40,0x81,0x0c,0x81,0x3d,0x40,0x04,
0x82,0x39,0x40,0x30,0x81,0x39,0x40,0x1a,0x91,0x3d,0x24,0x00,0x92,0x3d,0x3f,0x00,
0x95,0x3e,0x2d,0x40,0x85,0x3e,0x40,0x81,0x2b,0x95,0x42,0x2d,0x40,0x85,0x42,0x40,
0x77,0x83,0x3d,0x40,0x1e,0x81,0x3d,0x40,0x15,0x95,0x45,0x3f,0x30,0x85,0x45,0x40,
0x81,0x3b,0x91,0x3d,0x3f,0x00,0x93,0x3d,0x3f,0x00,0x95,0x4a,0x3f,0x30,0x85,0x4a,
0x40,0x81,0x30,0x83,0x3d,0x40,0x00,0x81,0x3d,0x40,0x0a,0x91,0x39,0x36,0x00,0x93,
0x39,0x36,0x00,0x95,0x45,0x24,0x00,0x85,0x45,0x40,0x81,0x20,0x83,0x39,0x40,0x40,
0x81,0x39,0x40,0x0a,0x91,0x36,0x3f,0x00,0x93,0x36,0x36,0x00,0x95,0x42,0x3f,0x00,
0x85,0x42,0x40,0x6c,0x82,0x3d,0x40,0x44,0x83,0x36,0x40,0x00,0x81,0x36,0x40,0x3a,
0x91,0x24,0x24,0x00,0x91,0x3c,0x3f,0x00,0x92,0x24,0x36,0x00,0x93,0x3c,0x36,0x00,
0x94,0x36,0x36,0x00,0x95,0x3f,0x36,0x30,0x85,0x3f,0x40,0x14,0x84,0x39,0x40,0x81,
0x26,0x91,0x27,0x24,0x00,0x92,0x27,0x36,0x00,0x95,0x42,0x36,0x06,0x82,0x24,0x40,
0x10,0x81,0x24,0x40,0x0a,0x85,0x42,0x40,0x81,0x30,0x82,0x27,0x40,0x00,0x81,0x27,
0x40,0x18,0x91,0x2a,0x24,0x00,0x92,0x2a,0x36,0x00,0x95,0x45,0x2d,0x30,0x85,0x45,
0x40,0x81,0x10,0x82,0x2a,0x40,0x20,0x81,0x2a,0x40,0x09,0x91,0x2d,0x24,0x00,0x92,
0x2d,0x3f,0x00,0x95,0x48,0x36,0x30,0x85,0x48,0x40,0x81,0x30,0x82,0x2d,0x40,0x00,
0x81,0x2d,0x40,0x0a,0x91,0x30,0x24,0x00,0x92,0x30,0x36,0x00,0x95,0x45,0x36,0x10,
0x85,0x45,0x40,0x81,0x50,0x82,0x30,0x40,0x00,0x81,0x30,0x40,0x0b,0x91,0x33,0x24,
0x00,0x92,0x33,0x36,0x00,0x95,0x42,0x36,0x20,0x85,0x42,0x40,0x81,0x30,0x81,0x33,
0x40,0x10,0x82,0x33,0x40,0x0b,0x91,0x36,0x24,0x00,0x92,0x36,0x36,0x00,0x95,0x3f,
0x36,0x05,0x81,0x3c,0x40,0x1b,0x85,0x3f,0x40,0x70,0x81,0x36,0x40,0x20,0x82,0x36,
0x40,0x3d,0x91,0x39,0x24,0x00,0x92,0x39,0x3f,0x00,0x95,0x42,0x36,0x40,0x85,0x42,
0x40,0x81,0x10,0x82,0x39,0x40,0x1a,0x91,0x3c,0x24,0x00,0x92,0x3c,0x36,0x00,0x95,
0x45,0x2d,0x16,0x81,0x39,0x40,0x2a,0x85,0x45,0x40,0x81,0x2b,0x91,0x3f,0x24,0x00,
0x92,0x3f,0x2d,0x00,0x95,0x48,0x40,0x15,0x82,0x3c,0x40,0x10,0x81,0x3c,0x40,0x0b,
0x85,0x48,0x40,0x81,0x3a,0x91,0x42,0x24,0x00,0x92,0x42,0x3f,0x00,0x95,0x45,0x36,
0x26,0x82,0x3f,0x40,0x0a,0x85,0x45,0x40,0x26,0x81,0x3f,0x40,0x7a,0x82,0x42,0x40,
0x19,0x91,0x45,0x24,0x00,0x92,0x45,0x3f,0x00,0x95,0x42,0x36,0x07,0x81,0x42,0x40,
0x39,0x85,0x42,0x40,0x81,0x20,0x81,0x45,0x40,0x00,0x82,0x45,0x40,0x00,0x84,0x36,
0x40,0x0a,0x91,0x2b,0x24,0x00,0x91,0x46,0x40,0x00,0x92,0x2b,0x2d,0x00,0x92,0x46,
0x3f,0x00,0x93,0x3e,0x36,0x00,0x94,0x37,0x3f,0x00,0x95,0x3e,0x36,0x20,0x85,0x3e,
0x40,0x06,0x83,0x3c,0x40,0x81,0x3a,0x82,0x2b,0x40,0x0b,0x91,0x32,0x24,0x00,0x92,
0x32,0x2d,0x00,0x95,0x43,0x36,0x30,0x85,0x43,0x40,0x25,0x81,0x2b,0x40,0x81,0x0b,
0x82,0x32,0x40,0x00,0x81,0x32,0x40,0x05,0x82,0x46,0x40,0x05,0x91,0x37,0x24,0x00,
0x92,0x37,0x3f,0x00,0x95,0x46,0x24,0x30,0x85,0x46,0x40,0x81,0x30,0x82,0x37,0x40,
0x0b,0x91,0x39,0x24,0x00,0x92,0x39,0x3f,0x00,0x95,0x4a,0x36,0x05,0x81,0x37,0x40,
0x2b,0x85,0x4a,0x40,0x81,0x3a,0x91,0x3a,0x24,0x00,0x92,0x3a,0x36,0x00,0x95,0x46,
0x2d,0x26,0x82,0x39,0x40,0x10,0x81,0x39,0x40,0x0a,0x85,0x46,0x40,0x81,0x2b,0x91,
0x3e,0x24,0x00,0x92,0x3e,0x36,0x00,0x95,0x43,0x36,0x15,0x82,0x3a,0x40,0x10,0x81,
0x3a,0x40,0x0b,0x85,0x43,0x40,0x81,0x3a,0x91,0x41,0x24,0x00,0x92,0x41,0x3f,0x00,
0x95,0x3e,0x36,0x06,0x82,0x3e,0x40,0x00,0x81,0x3e,0x40,0x2a,0x85,0x3e,0x40,0x81,
0x3b,0x95,0x43,0x2d,0x30,0x85,0x43,0x40,0x75,0x81,0x41,0x40,0x45,0x95,0x46,0x36,
0x2c,0x81,0x46,0x40,0x04,0x85,0x46,0x40,0x81,0x2c,0x83,0x3e,0x40,0x0f,0x91,0x41,
0x40,0x00,0x93,0x41,0x3f,0x00,0x95,0x4a,0x36,0x30,0x85,0x4a,0x40,0x81,0x3a,0x91,
0x3f,0x36,0x00,0x93,0x3f,0x36,0x00,0x95,0x46,0x2d,0x16,0x83,0x41,0x40,0x00,0x81,
0x41,0x40,0x1a,0x85,0x46,0x40,0x81,0x20,0x83,0x3f,0x40,0x00,0x81,0x3f,0x40,0x1b,
0x91,0x3e,0x3f,0x00,0x93,0x3e,0x3f,0x00,0x95,0x43,0x36,0x30,0x85,0x43,0x40,0x81,
0x2b,0x82,0x41,0x40,0x0f,0x91,0x27,0x24,0x00,0x91,0x3f,0x3f,0x00,0x92,0x27,0x3f,
0x00,0x93,0x3f,0x3f,0x00,0x94,0x3a,0x3f,0x00,0x95,0x3f,0x2d,0x06,0x83,0x3e,0x40,
0x1c,0x84,0x37,0x40,0x04,0x81,0x3e,0x40,0x0a,0x85,0x3f,0x40,0x81,0x3b,0x91,0x2e,
0x1b,0x00,0x92,0x2e,0x2d,0x00,0x95,0x43,0x36,0x05,0x82,0x27,0x40,0x20,0x81,0x27,
0x40,0x0b,0x85,0x43,0x40,0x81,0x30,0x82,0x2e,0x40,0x00,0x81,0x2e,0x40,0x0a,0x91,
0x33,0x1b,0x00,0x92,0x33,0x3f,0x00,0x95,0x46,0x36,0x30,0x85,0x46,0x40,0x81,0x00,
0x82,0x33,0x40,0x3b,0x91,0x35,0x24,0x00,0x92,0x35,0x3f,0x00,0x95,0x4b,0x36,0x15,
0x81,0x33,0x40,0x2b,0x85,0x4b,0x40,0x81,0x20,0x81,0x35,0x40,0x01,0x91,0x37,0x24,
0x00,0x92,0x37,0x36,0x00,0x95,0x46,0x36,0x1f,0x82,0x35,0x40,0x21,0x85,0x46,0x40,
0x7f,0x83,0x3f,0x40,0x10,0x81,0x3f,0x40,0x01,0x82,0x37,0x40,0x10,0x81,0x37,0x40,
0x0a,0x91,0x3a,0x36,0x00,0x92,0x3a,0x36,0x00,0x93,0x3a,0x3f,0x00,0x95,0x43,0x36,
0x30,0x85,0x43,0x40,0x30,0x83,0x3a,0x40,0x10,0x81,0x3a,0x40,0x35,0x84,0x3a,0x40,
0x46,0x91,0x3a,0x40,0x00,0x93,0x3a,0x3f,0x00,0x94,0x3c,0x36,0x00,0x95,0x3f,0x36,
0x40,0x85,0x3f,0x40,0x81,0x2c,0x95,0x43,0x36,0x40,0x85,0x43,0x40,0x81,0x34,0x95,
0x46,0x36,0x30,0x85,0x46,0x40,0x81,0x2f,0x91,0x3f,0x3f,0x00,0x94,0x3a,0x36,0x00,
0x95,0x4b,0x3f,0x01,0x81,0x3a,0x40,0x10,0x84,0x3c,0x40,0x2f,0x85,0x4b,0x40,0x81,
0x2e,0x95,0x46,0x36,0x40,0x85,0x46,0x40,0x52,0x81,0x3f,0x40,0x58,0x95,0x43,0x12,
0x40,0x85,0x43,0x40,0x3e,0x82,0x3a,0x40,0x4b,0x83,0x3a,0x40,0x22,0x91,0x24,0x24,
0x00,0x91,0x3f,0x40,0x00,0x92,0x24,0x36,0x00,0x93,0x3f,0x3f,0x00,0x94,0x3c,0x36,
0x09,0x95,0x3c,0x3f,0x04,0x84,0x3a,0x40,0x0c,0x85,0x3c,0x40,0x81,0x51,0x91,0x2b,
0x24,0x00,0x92,0x2b,0x36,0x00,0x95,0x43,0x3f,0x16,0x82,0x24,0x40,0x10,0x81,0x24,
0x40,0x0a,0x85,0x43,0x40,0x81,0x3d,0x91,0x30,0x24,0x00,0x92,0x30,0x36,0x00,0x95,
0x46,0x36,0x03,0x82,0x2b,0x40,0x00,0x81,0x2b,0x40,0x3d,0x85,0x46,0x40,0x81,0x10,
0x82,0x30,0x40,0x1a,0x91,0x32,0x24,0x00,0x92,0x32,0x36,0x00,0x95,0x48,0x3f,0x26,
0x81,0x30,0x40,0x1a,0x85,0x48,0x40,0x81,0x2b,0x91,0x33,0x24,0x00,0x92,0x33,0x36,
0x00,0x95,0x46,0x36,0x35,0x82,0x32,0x40,0x0b,0x85,0x46,0x40,0x05,0x81,0x32,0x40,
0x81,0x25,0x91,0x37,0x24,0x00,0x92,0x37,0x3f,0x00,0x95,0x43,0x36,0x16,0x82,0x33,
0x40,0x00,0x81,0x33,0x40,0x1a,0x85,0x43,0x40,0x81,0x0a,0x81,0x3f,0x40,0x30,0x83,
0x3f,0x40,0x01,0x91,0x3a,0x3f,0x00,0x92,0x3a,0x3f,0x00,0x93,0x3a,0x36,0x00,0x94,
0x3e,0x3f,0x00,0x95,0x3c,0x2d,0x05,0x82,0x37,0x40,0x00,0x81,0x37,0x40,0x2a,0x84,
0x3c,0x40,0x01,0x85,0x3c,0x40,0x81,0x3a,0x95,0x43,0x3f,0x30,0x85,0x43,0x40,0x81,
0x3b,0x95,0x46,0x36,0x40,0x85,0x46,0x40,0x81,0x1b,0x83,0x3a,0x40,0x0f,0x91,0x39,
0x3f,0x00,0x93,0x39,0x36,0x00,0x95,0x48,0x3f,0x11,0x81,0x3a,0x40,0x2f,0x85,0x48,
0x40,0x81,0x2b,0x95,0x46,0x36,0x40,0x85,0x46,0x40,0x81,0x2a,0x95,0x43,0x36,0x30,
0x85,0x43,0x40,0x6b,0x81,0x39,0x40,0x01,0x84,0x3e,0x40,0x10,0x82,0x3a,0x40,0x1f,
0x83,0x39,0x40,0x20,0x91,0x2b,0x24,0x00,0x91,0x3a,0x3f,0x00,0x92,0x2b,0x36,0x00,
0x93,0x3a,0x36,0x00,0x94,0x37,0x3f,0x00,0x95,0x3e,0x36,0x40,0x85,0x3e,0x40,0x81,
0x2a,0x91,0x32,0x24,0x00,0x92,0x32,0x2d,0x00,0x95,0x43,0x36,0x30,0x85,0x43,0x40,
0x16,0x82,0x2b,0x40,0x00,0x81,0x2b,0x40,0x81,0x1a,0x82,0x32,0x40,0x0b,0x91,0x37,
0x24,0x00,0x92,0x37,0x36,0x00,0x95,0x46,0x2d,0x05,0x81,0x32,0x40,0x2b,0x85,0x46,
0x40,0x81,0x20,0x82,0x37,0x40,0x0b,0x81,0x3a,0x40,0x05,0x81,0x37,0x40,0x0a,0x91,
0x39,0x24,0x00,0x92,0x39,0x36,0x00,0x95,0x4a,0x3f,0x40,0x85,0x4a,0x40,0x81,0x2b,
0x91,0x3a,0x2d,0x00,0x92,0x3a,0x36,0x00,0x95,0x46,0x36,0x15,0x81,0x39,0x40,0x10,
0x82,0x39,0x40,0x1b,0x85,0x46,0x40,0x81,0x2a,0x91,0x3e,0x2d,0x00,0x92,0x3e,0x36,
0x00,0x95,0x43,0x36,0x16,0x82,0x3a,0x40,0x10,0x81,0x3a,0x40,0x0a,0x85,0x43,0x40,
0x81,0x3b,0x91,0x41,0x40,0x00,0x92,0x41,0x3f,0x00,0x95,0x3e,0x36,0x05,0x81,0x3e,
0x40,0x20,0x82,0x3e,0x40,0x1b,0x85,0x3e,0x40,0x81,0x2a,0x95,0x43,0x36,0x40,0x85,
0x43,0x40,0x81,0x2b,0x95,0x46,0x36,0x30,0x85,0x46,0x40,0x81,0x3a,0x95,0x4a,0x3f,
0x40,0x85,0x4a,0x40,0x81,0x2b,0x91,0x3f,0x3f,0x00,0x93,0x3f,0x3f,0x00,0x95,0x46,
0x36,0x27,0x83,0x3a,0x40,0x09,0x85,0x46,0x40,0x16,0x81,0x41,0x40,0x6a,0x83,0x3f,
0x40,0x30,0x81,0x3f,0x40,0x0a,0x91,0x3e,0x3f,0x00,0x93,0x3e,0x3f,0x00,0x95,0x43,
0x40,0x20,0x85,0x43,0x40,0x81,0x1c,0x82,0x41,0x40,0x04,0x83,0x3e,0x40,0x0d,0x84,
0x37,0x40,0x03,0x81,0x3e,0x40,0x1b,0xff,0x2f,0x00,
};

const int _embedded_song_size=sizeof(_embedded_song);
